<?xml version="1.0" standalone="no"?>
<!DOCTYPE svg PUBLIC "-//W3C//DTD SVG 20010904//EN"
 "http://www.w3.org/TR/2001/REC-SVG-20010904/DTD/svg10.dtd">
<svg version="1.0" xmlns="http://www.w3.org/2000/svg"
 width="1280.000000pt" height="1280.000000pt" viewBox="0 0 1280.000000 1280.000000"
 preserveAspectRatio="xMidYMid meet">
<metadata>
Created by potrace 1.11, written by Peter Selinger 2001-2013
</metadata>
<g transform="translate(0.000000,1280.000000) scale(0.100000,-0.100000)"
fill="#000000" stroke="none">
<path d="M1410 9701 c-94 -30 -143 -88 -159 -189 -18 -103 -10 -3703 7 -3754
17 -50 56 -94 106 -121 l41 -22 735 0 c655 0 748 2 855 18 324 48 603 155 795
302 74 57 202 193 244 258 122 191 176 388 176 642 0 155 -11 229 -52 353 -93
281 -307 495 -589 589 -52 17 -107 34 -123 38 -29 6 -26 8 52 50 119 64 160
95 244 184 88 93 166 237 199 366 29 113 35 302 15 432 -63 415 -314 672 -771
793 -230 61 -262 63 -1040 66 -390 2 -721 -1 -735 -5z m1352 -649 c106 -29
172 -65 235 -128 145 -145 174 -415 68 -630 -60 -122 -174 -210 -327 -251 -53
-14 -113 -17 -368 -18 l-305 0 -3 528 -2 529 312 -4 c278 -4 322 -7 390 -26z
m-67 -1652 c358 -28 558 -165 625 -426 70 -273 -38 -532 -270 -647 -132 -67
-178 -72 -605 -72 l-380 0 -3 565 c-1 311 0 571 3 578 5 15 444 17 630 2z"/>
<path d="M5027 9696 c-89 -32 -131 -89 -148 -199 -6 -38 -9 -762 -7 -1882 3
-1945 1 -1846 50 -1917 11 -16 40 -40 66 -55 l47 -28 740 0 c664 0 752 2 855
18 425 67 723 206 936 437 102 110 167 223 218 375 46 138 59 240 53 430 -5
189 -24 275 -92 422 -114 246 -344 433 -628 508 l-68 18 78 41 c114 60 161 95
246 186 89 95 164 232 198 365 29 115 36 311 15 439 -70 423 -326 677 -801
794 -217 54 -353 62 -1085 61 -504 0 -643 -3 -673 -13z m1371 -645 c41 -12 96
-33 124 -47 163 -82 250 -263 235 -484 -18 -246 -150 -412 -382 -476 -48 -14
-121 -18 -367 -21 l-308 -5 0 532 0 532 313 -5 c284 -4 319 -6 385 -26z m-70
-1651 c222 -17 367 -70 480 -175 106 -98 162 -237 162 -407 0 -171 -43 -283
-149 -388 -76 -76 -157 -121 -268 -152 -72 -20 -106 -22 -465 -26 l-388 -3 0
580 0 581 253 0 c138 0 307 -5 375 -10z"/>
<path d="M8657 9696 c-89 -32 -132 -90 -148 -199 -13 -91 -12 -3752 2 -3799
19 -70 106 -96 344 -105 244 -8 395 13 455 63 l30 26 2 796 3 797 157 3 c244
4 371 -33 484 -140 134 -126 207 -272 483 -961 114 -286 209 -509 222 -523 41
-44 105 -56 339 -61 236 -6 408 7 464 33 25 12 39 28 47 51 23 71 -3 148 -243
708 -271 632 -333 755 -457 901 -57 68 -176 166 -252 208 -31 17 -32 19 -14
27 223 90 319 146 438 259 134 127 217 256 266 415 82 264 72 598 -25 842
-152 379 -535 613 -1084 663 -66 6 -405 10 -795 10 -542 -1 -688 -4 -718 -14z
m1265 -637 c251 -27 413 -121 489 -282 115 -249 54 -574 -135 -717 -70 -53
-183 -104 -281 -126 -68 -16 -123 -19 -365 -19 l-285 0 -3 565 c-1 311 0 571
3 578 6 16 429 17 577 1z"/>
<path d="M5786 4018 c-131 -17 -280 -127 -339 -249 -102 -210 -65 -471 89
-625 99 -99 202 -139 337 -132 143 7 263 81 349 212 56 87 78 168 78 290 0
164 -39 265 -141 372 -106 110 -226 153 -373 132z m174 -194 c61 -30 114 -87
145 -156 22 -47 26 -71 26 -145 0 -99 -9 -135 -45 -197 -75 -128 -219 -179
-341 -122 -52 24 -123 92 -148 142 -68 137 -40 323 64 424 92 89 193 108 299
54z"/>
<path d="M9696 4018 c-157 -21 -305 -145 -364 -307 -32 -89 -40 -230 -18 -324
30 -129 100 -231 203 -300 97 -64 155 -80 263 -75 119 6 211 49 298 142 71 76
106 144 128 246 74 349 -184 662 -510 618z m169 -190 c132 -65 210 -239 175
-389 -60 -254 -315 -343 -477 -167 -72 80 -98 157 -91 272 14 223 218 370 393
284z"/>
<path d="M525 3976 c-28 -28 -33 -79 -11 -108 15 -20 58 -38 92 -38 l24 0 0
-315 0 -315 -30 0 c-37 0 -85 -23 -94 -45 -19 -51 8 -108 58 -121 12 -3 160
-4 327 -2 251 3 312 6 347 20 114 43 173 122 176 233 1 87 -24 144 -91 205
l-56 51 21 22 c56 60 72 190 32 272 -26 53 -86 110 -149 139 -43 20 -65 21
-333 24 l-288 3 -25 -25z m578 -160 c46 -19 71 -51 71 -91 0 -40 -23 -69 -79
-98 -33 -18 -62 -22 -167 -25 l-128 -4 0 116 0 116 135 0 c92 0 146 -4 168
-14z m57 -416 c108 -60 114 -161 11 -190 -20 -5 -111 -10 -203 -10 l-168 0 0
116 0 116 158 -4 c145 -3 160 -5 202 -28z"/>
<path d="M1505 3975 c-28 -27 -33 -79 -11 -107 15 -20 58 -38 92 -38 l24 0 0
-315 0 -315 -30 0 c-37 0 -85 -23 -94 -45 -10 -27 -6 -69 8 -87 26 -35 62 -38
467 -38 l400 0 -3 160 c-3 149 -4 161 -25 182 -33 33 -89 30 -119 -6 -20 -23
-24 -38 -24 -97 l0 -69 -205 0 -205 0 0 115 0 115 70 0 70 0 0 -34 c0 -44 26
-75 71 -82 28 -5 41 -1 64 18 27 24 28 29 33 130 9 200 -11 258 -88 258 -45 0
-77 -31 -82 -80 l-3 -35 -67 -3 -68 -3 0 116 0 115 184 0 183 0 6 -71 c5 -55
11 -77 28 -95 31 -33 82 -32 114 1 24 24 25 28 25 180 l0 155 -395 0 -396 0
-24 -25z"/>
<path d="M2525 3975 c-45 -44 -26 -116 38 -138 16 -6 17 -30 17 -322 l0 -315
-29 0 c-17 0 -42 -10 -56 -23 -35 -29 -37 -89 -6 -121 20 -20 32 -21 187 -21
l166 0 24 28 c49 57 14 125 -69 134 l-47 6 0 113 0 114 175 0 176 0 -3 -112
-3 -112 -45 -8 c-81 -14 -114 -79 -66 -135 l24 -28 165 0 c148 0 167 2 186 19
15 14 21 31 21 61 0 50 -19 71 -76 83 l-39 8 -3 311 -2 311 31 11 c18 6 38 19
45 28 19 26 17 77 -5 104 -18 23 -26 24 -156 27 -150 4 -185 -4 -204 -44 -28
-61 7 -113 82 -121 l47 -6 0 -113 0 -114 -175 0 -175 0 0 114 0 113 47 6 c74
8 109 60 82 120 -18 39 -50 47 -195 47 -130 0 -136 -1 -159 -25z"/>
<path d="M4425 3976 c-28 -28 -33 -79 -11 -108 15 -20 58 -38 92 -38 l24 0 0
-315 0 -315 -30 0 c-37 0 -85 -23 -94 -45 -21 -55 9 -109 67 -120 58 -11 619
0 659 13 142 47 214 181 172 322 -12 44 -28 67 -76 114 l-59 58 20 22 c57 60
72 187 32 270 -27 54 -87 111 -150 140 -43 20 -65 21 -333 24 l-288 3 -25 -25z
m578 -160 c46 -19 71 -51 71 -91 0 -40 -23 -69 -79 -98 -33 -18 -62 -22 -167
-25 l-128 -4 0 116 0 116 135 0 c92 0 146 -4 168 -14z m57 -416 c108 -61 114
-161 11 -190 -20 -5 -111 -10 -203 -10 l-168 0 0 116 0 116 158 -4 c146 -3
160 -5 202 -28z"/>
<path d="M6402 3984 c-58 -40 -44 -123 25 -145 38 -11 67 -43 236 -252 l47
-59 -27 -37 c-16 -21 -75 -94 -132 -163 -76 -93 -110 -127 -131 -132 -86 -17
-94 -132 -11 -157 21 -6 93 -9 169 -7 127 3 135 4 153 27 37 46 17 122 -36
135 l-26 7 46 57 c24 31 60 74 77 95 l33 39 78 -96 c75 -92 77 -96 53 -102
-59 -15 -81 -93 -38 -137 21 -21 31 -22 178 -22 l156 0 24 28 c42 49 25 110
-38 129 -32 9 -59 36 -169 170 -72 87 -129 163 -127 168 2 5 57 74 122 154 88
108 126 147 147 151 32 7 69 48 69 76 0 31 -21 66 -47 78 -13 6 -78 11 -147
11 -110 0 -126 -2 -150 -21 -37 -29 -37 -90 0 -124 l27 -25 -63 -77 c-35 -43
-67 -82 -70 -86 -4 -4 -39 30 -79 78 l-72 85 26 23 c38 32 38 92 0 124 -24 21
-35 23 -153 23 -101 0 -132 -3 -150 -16z"/>
<path d="M8353 3990 c-12 -5 -26 -18 -32 -29 -31 -56 7 -119 77 -128 l42 -6 0
-313 0 -314 -30 0 c-56 0 -100 -37 -100 -85 0 -30 24 -65 53 -75 42 -14 342
-13 370 2 42 22 58 67 41 113 -10 25 -59 45 -114 45 l-50 0 0 100 0 100 83 0
c77 0 85 -2 127 -34 57 -41 138 -133 220 -250 l62 -88 78 4 c96 4 120 20 120
83 0 51 -22 75 -77 82 -34 4 -43 12 -78 66 -22 34 -67 90 -100 126 l-60 64 25
15 c60 38 119 111 135 166 45 155 -52 305 -227 352 -60 16 -527 19 -565 4z
m574 -192 c55 -36 70 -75 48 -122 -32 -68 -130 -106 -272 -106 l-93 0 0 131 0
131 138 -4 c130 -3 141 -5 179 -30z"/>
<path d="M10297 3980 c-29 -23 -37 -73 -17 -110 10 -20 59 -40 96 -40 l24 0 0
-314 0 -313 -47 -6 c-56 -6 -83 -33 -83 -83 0 -38 26 -70 63 -79 13 -4 98 -5
189 -3 193 4 208 9 208 83 0 58 -24 78 -100 83 l-60 4 0 89 0 88 44 35 c23 20
50 36 58 36 32 0 109 -64 148 -122 37 -55 89 -157 134 -260 l16 -38 95 0 c125
0 164 20 164 85 0 53 -40 85 -108 85 l-40 0 -35 75 c-47 101 -128 216 -184
261 -26 21 -49 40 -52 42 -3 2 6 13 20 24 14 11 43 36 65 56 136 125 193 169
232 181 48 13 63 34 63 85 0 25 -7 40 -26 55 -24 19 -40 21 -164 21 -124 0
-140 -2 -164 -21 -31 -24 -36 -81 -10 -118 14 -19 14 -25 3 -35 -24 -22 -223
-191 -241 -205 -17 -13 -18 -7 -18 98 l0 111 40 0 c44 0 103 21 115 40 15 24
7 82 -14 104 -20 20 -33 21 -204 24 -174 3 -184 2 -210 -18z"/>
<path d="M11315 3975 c-45 -44 -26 -116 38 -138 16 -6 17 -30 17 -322 l0 -315
-29 0 c-17 0 -42 -10 -56 -23 -35 -29 -37 -89 -6 -121 20 -20 32 -21 186 -21
157 0 165 1 187 22 29 30 30 86 1 114 -13 13 -39 23 -67 26 l-46 6 0 113 0
114 175 0 176 0 -3 -112 -3 -112 -45 -8 c-81 -14 -114 -79 -66 -135 l24 -28
167 0 c163 0 167 1 186 24 25 31 25 92 0 115 -11 10 -38 20 -60 23 l-41 6 0
313 0 313 23 6 c63 20 87 88 48 136 -18 23 -26 24 -156 27 -150 4 -185 -4
-204 -44 -28 -61 7 -113 82 -121 l47 -6 0 -113 0 -114 -175 0 -175 0 0 114 0
113 46 6 c59 6 88 34 88 83 0 28 -7 42 -28 60 -26 23 -34 24 -167 24 -135 0
-141 -1 -164 -25z"/>
</g>
</svg>
